<svg xmlns="http://www.w3.org/2000/svg" width="865.665" height="576.444" viewBox="0 0 865.665 576.444"><defs><style>.a{fill:#ffb6b6;}.b{fill:#f2f2f2;}.c{fill:#2f2e41;}.d{fill:#e6e6e6;}.e{fill:#ccc;}.f{fill:#fff;}.g{fill:#e4e4e4;}.h{fill:#3f3d56;}.i{fill:#6c63ff;}</style></defs><path class="a" d="M716.982,481.915a11.8,11.8,0,0,0,9.173-13.773,11.6,11.6,0,0,0-.567-1.968l31.471-27.129-20.575-5.821-26.731,26.655a11.841,11.841,0,0,0-5.662,15.631,11.529,11.529,0,0,0,12.891,6.405Z" transform="translate(-167.165 -161.778)"/><path class="b" d="M921.345,674.306l1.144-25.719a83.064,83.064,0,0,1,38.745-9.808c-18.608,15.214-16.283,44.541-28.9,65A49.965,49.965,0,0,1,895.7,726.867L880.123,736.4a83.725,83.725,0,0,1,17.647-67.845,80.873,80.873,0,0,1,14.863-13.81C916.363,664.581,921.345,674.306,921.345,674.306Z" transform="translate(-167.165 -161.778)"/><path class="a" d="M714.057,561.388h-14.1L693.248,507h20.811Z"/><path class="c" d="M884.817,736.834l-45.466,0v-.575a17.7,17.7,0,0,1,17.7-17.7h0l8.3-6.3,15.5,6.3h3.969Z" transform="translate(-167.165 -161.778)"/><path class="a" d="M648.548,561.388h-14.1L627.74,507h20.811Z"/><path class="c" d="M819.309,736.834l-45.466,0v-.575a17.7,17.7,0,0,1,17.7-17.7h0l8.3-6.3,15.5,6.3h3.969Z" transform="translate(-167.165 -161.778)"/><path class="c" d="M809.61,425.826l91.715,2.293c17.419,9.461,17.683,29.938,11.976,54.25,0,0,1.927,14.45-1.927,18.3s-5.78,3.853-3.853,10.6-8.253,17.758-7.017,18.994,4.126,7.98,4.126,7.98L895,593.154s-6.743,95.372-8.67,97.3-3.853,0-1.927,4.817,3.853,2.89,1.927,4.817a70.92,70.92,0,0,0-4.817,5.78H858.22s-1.756-9.634-1.756-10.6-1.927-6.743-1.927-7.707,1.7-2.666,1.7-2.666a31.7,31.7,0,0,0,1.187-6c0-1.927,5.78-76.1,5.78-76.1l-11.56-96.335-27.938,94.409s0,82.848-1.927,84.775-1.927.963-.963,4.817,4.817,2.89,1.927,5.78-3.853-1.927-2.89,2.89l.963,4.817-28.9.413s-3.853-8.12-1.927-11.01,1.811-2.1-.539-6.831-3.314-5.693-2.351-6.656.963-6.087.963-6.087l4.817-92.175s.963-97.3.963-100.189a9.608,9.608,0,0,0-.8-4.334v-3.923l3.69-13.9Z" transform="translate(-167.165 -161.778)"/><path class="d" d="M715.921,450.623l15.5,12.5,84.5-65.5-5-114h0a46.039,46.039,0,0,0-17.023,31.1l-14.477,64.4Z" transform="translate(-167.165 -161.778)"/><path class="d" d="M795.921,454.623c29.911,3.823,57.469-7.759,83.5-16.5,11.752-3.946,23.59.173,34.5-6.5-4.718-46.467-.137-98.808,9.884-154.586a13.217,13.217,0,0,0-8.986-14.946l-32.291-9.264-9.942-10.967-25.677,6.518-8.988,16.246-30.888,20.87a11.292,11.292,0,0,0-4.808,11.28A370.222,370.222,0,0,1,795.921,454.623Z" transform="translate(-167.165 -161.778)"/><path class="a" d="M891.382,469.005a11.8,11.8,0,0,0,5.067-15.753,11.6,11.6,0,0,0-1.083-1.739l22.874-34.687-21.383.014-18.444,32.937a11.841,11.841,0,0,0-1.182,16.583,11.529,11.529,0,0,0,14.15,2.645Z" transform="translate(-167.165 -161.778)"/><path class="d" d="M884.921,436.623l14,18,49-73-4.238-74.163a56.1,56.1,0,0,0-28.762-45.837h0l1,114Z" transform="translate(-167.165 -161.778)"/><circle class="a" cx="31.336" cy="31.336" r="31.336" transform="translate(651.24 13.166)"/><path class="c" d="M829.775,187.89a14.808,14.808,0,0,1,3.593.472,51.137,51.137,0,0,0,7.033,1.179,32.59,32.59,0,0,1,29.182,27.643c1.821-1.588,5.964-4.508,9.36-1.794h0c.052.043.082.065.2.009,2.255-1.07,6.259-14.239,6.38-25.834.064-6.154-.9-14.013-5.882-16.5l-.262-.131-.069-.285c-.332-1.384-4.048-3.747-10.505-5.587-11.735-3.342-29.227-9.854-39.077-.271-.745,3.23-3.171,10.144-5.621,10.927-2.713.867-5.056,1.616-5.425,4.944a102.009,102.009,0,0,0,.067,14.219,14.522,14.522,0,0,1,5.159-7.247A10.225,10.225,0,0,1,829.775,187.89Z" transform="translate(-167.165 -161.778)"/><path class="e" d="M1032.83,737.032a1.186,1.186,0,0,1-1.19,1.19H168.355a1.19,1.19,0,0,1,0-2.38h863.29a1.186,1.186,0,0,1,1.185,1.19Z" transform="translate(-167.165 -161.778)"/><path class="d" d="M524.442,262.9,406.817,289.364a12.2,12.2,0,0,0-9.215,14.565l32.254,143.365,138.2-31.093a6.056,6.056,0,0,0,2.993-1.652L539.007,272.116a12.2,12.2,0,0,0-14.565-9.215Z" transform="translate(-167.165 -161.778)"/><path class="f" d="M481.715,282.642l-64.462,14.5a11.111,11.111,0,0,0-8.394,13.261L439.184,445.2l122.744-27.615-22.084-98.162a48.7,48.7,0,0,0-58.128-36.777Z" transform="translate(-167.165 -161.778)"/><path class="g" d="M538.323,410.314,457.4,428.52a2.7,2.7,0,0,0,1.187,5.275l80.921-18.206a2.7,2.7,0,1,0-1.187-5.275Z" transform="translate(-167.165 -161.778)"/><path class="g" d="M535.977,399.883l-80.922,18.205a2.706,2.706,0,0,0,1.188,5.28l80.921-18.206a2.706,2.706,0,1,0-1.188-5.28Z" transform="translate(-167.165 -161.778)"/><path class="g" d="M487.788,399.77l-35.078,7.892a2.7,2.7,0,0,0,1.187,5.275l35.078-7.892a2.7,2.7,0,1,0-1.187-5.275Z" transform="translate(-167.165 -161.778)"/><path class="g" d="M528.717,367.614,447.8,385.82a2.706,2.706,0,0,0,1.188,5.28L529.9,372.894a2.706,2.706,0,0,0-1.188-5.28Z" transform="translate(-167.165 -161.778)"/><path class="g" d="M526.371,357.188l-80.922,18.206a2.7,2.7,0,0,0,1.187,5.275l80.921-18.206a2.7,2.7,0,1,0-1.187-5.275Z" transform="translate(-167.165 -161.778)"/><path class="g" d="M478.181,357.07,443.1,364.962a2.706,2.706,0,0,0,1.188,5.28l35.078-7.892a2.706,2.706,0,1,0-1.188-5.28Z" transform="translate(-167.165 -161.778)"/><path class="d" d="M519.11,324.914,438.188,343.12a2.706,2.706,0,0,0,1.188,5.28L520.3,330.194a2.706,2.706,0,0,0-1.188-5.28Z" transform="translate(-167.165 -161.778)"/><path class="d" d="M516.765,314.488l-80.922,18.206a2.706,2.706,0,0,0,1.188,5.28l80.922-18.206a2.706,2.706,0,1,0-1.188-5.28Z" transform="translate(-167.165 -161.778)"/><path class="d" d="M468.574,314.371,433.5,322.262a2.706,2.706,0,0,0,1.188,5.28l35.078-7.892a2.706,2.706,0,1,0-1.188-5.28Z" transform="translate(-167.165 -161.778)"/><path class="h" d="M289.779,429.241a2.9,2.9,0,0,0-2.892,2.892V731.181a2.9,2.9,0,0,0,2.892,2.893H664.725a2.9,2.9,0,0,0,2.892-2.893V480.137a2.9,2.9,0,0,0-2.892-2.893H449.53a8.765,8.765,0,0,1-5.907-2.282L395.244,431a6.77,6.77,0,0,0-4.562-1.763Z" transform="translate(-167.165 -161.778)"/><path class="d" d="M737.242,351.025,536.479,264.713a22.116,22.116,0,0,0-29.019,11.569l-105.2,244.695L638.147,622.388a10.978,10.978,0,0,0,6.15.761L748.812,380.043a22.115,22.115,0,0,0-11.57-29.018Z" transform="translate(-167.165 -161.778)"/><path class="f" d="M653.54,334.535l-110.023-47.3a20.14,20.14,0,0,0-26.427,10.528l-98.907,230.06,209.5,90.067,72.029-167.542A88.262,88.262,0,0,0,653.54,334.535Z" transform="translate(-167.165 -161.778)"/><path class="g" d="M600.776,582.114,462.659,522.735a4.9,4.9,0,0,0-3.871,9l138.117,59.379a4.9,4.9,0,0,0,3.871-9Z" transform="translate(-167.165 -161.778)"/><path class="g" d="M608.43,564.309,470.313,504.93a4.9,4.9,0,0,0-3.875,9.012l138.117,59.379a4.9,4.9,0,1,0,3.875-9.012Z" transform="translate(-167.165 -161.778)"/><path class="g" d="M537.835,512.875l-59.871-25.74a4.9,4.9,0,0,0-3.871,9l59.871,25.74a4.9,4.9,0,1,0,3.871-9Z" transform="translate(-167.165 -161.778)"/><path class="g" d="M632.108,509.233,493.991,449.854a4.905,4.905,0,0,0-3.875,9.012l138.117,59.379a4.905,4.905,0,1,0,3.875-9.012Z" transform="translate(-167.165 -161.778)"/><path class="g" d="M639.759,491.438,501.642,432.059a4.9,4.9,0,1,0-3.871,9l138.117,59.379a4.9,4.9,0,1,0,3.871-9Z" transform="translate(-167.165 -161.778)"/><path class="g" d="M569.167,439.995,509.3,414.255a4.905,4.905,0,0,0-3.875,9.012l59.872,25.74a4.905,4.905,0,0,0,3.875-9.012Z" transform="translate(-167.165 -161.778)"/><path class="i" d="M663.441,436.353,525.324,376.974a4.9,4.9,0,0,0-3.875,9.012l138.117,59.379a4.905,4.905,0,1,0,3.875-9.012Z" transform="translate(-167.165 -161.778)"/><path class="i" d="M671.091,418.558,532.974,359.179a4.905,4.905,0,1,0-3.875,9.012L667.216,427.57a4.9,4.9,0,1,0,3.875-9.012Z" transform="translate(-167.165 -161.778)"/><path class="i" d="M600.5,367.115l-59.872-25.74a4.9,4.9,0,1,0-3.875,9.012l59.872,25.74a4.9,4.9,0,1,0,3.875-9.012Z" transform="translate(-167.165 -161.778)"/><path class="d" d="M451.442,439.9,333.817,466.364a12.2,12.2,0,0,0-9.215,14.565l32.254,143.365,138.2-31.093a6.056,6.056,0,0,0,2.993-1.652L466.007,449.116A12.2,12.2,0,0,0,451.442,439.9Z" transform="translate(-167.165 -161.778)"/><path class="f" d="M408.715,459.642l-64.462,14.5a11.111,11.111,0,0,0-8.394,13.261L366.184,622.2l122.744-27.615-22.084-98.162a48.7,48.7,0,0,0-58.129-36.777Z" transform="translate(-167.165 -161.778)"/><path class="g" d="M465.323,587.314,384.4,605.52a2.7,2.7,0,0,0,1.187,5.275l80.921-18.206a2.7,2.7,0,1,0-1.187-5.275Z" transform="translate(-167.165 -161.778)"/><path class="g" d="M462.976,576.883l-80.921,18.205a2.706,2.706,0,1,0,1.188,5.28l80.922-18.206a2.706,2.706,0,1,0-1.188-5.28Z" transform="translate(-167.165 -161.778)"/><path class="g" d="M414.788,576.77l-35.078,7.892a2.7,2.7,0,1,0,1.187,5.275l35.078-7.892a2.7,2.7,0,1,0-1.187-5.275Z" transform="translate(-167.165 -161.778)"/><path class="g" d="M455.717,544.614,374.8,562.82a2.706,2.706,0,1,0,1.188,5.28L456.9,549.894a2.706,2.706,0,1,0-1.188-5.28Z" transform="translate(-167.165 -161.778)"/><path class="g" d="M453.371,534.188l-80.922,18.206a2.7,2.7,0,1,0,1.187,5.275l80.922-18.206a2.7,2.7,0,1,0-1.187-5.275Z" transform="translate(-167.165 -161.778)"/><path class="g" d="M405.181,534.07,370.1,541.962a2.706,2.706,0,1,0,1.188,5.28l35.078-7.892a2.706,2.706,0,1,0-1.188-5.28Z" transform="translate(-167.165 -161.778)"/><path class="d" d="M446.11,501.914,365.188,520.12a2.706,2.706,0,0,0,1.188,5.28L447.3,507.194a2.706,2.706,0,1,0-1.188-5.28Z" transform="translate(-167.165 -161.778)"/><path class="d" d="M443.765,491.488l-80.922,18.206a2.706,2.706,0,1,0,1.188,5.28l80.922-18.206a2.706,2.706,0,1,0-1.188-5.28Z" transform="translate(-167.165 -161.778)"/><path class="d" d="M395.574,491.371,360.5,499.262a2.706,2.706,0,0,0,1.188,5.28l35.078-7.892a2.706,2.706,0,1,0-1.188-5.28Z" transform="translate(-167.165 -161.778)"/><path class="h" d="M287.294,507.787a2.892,2.892,0,0,0-2.892,2.892c0,.108.089,222.826.089,222.826a2.89,2.89,0,0,0,2.874,2.568H690.138a2.89,2.89,0,0,0,2.874-2.568L718.082,511a2.892,2.892,0,0,0-.717-2.251,2.859,2.859,0,0,0-2.156-.965Z" transform="translate(-167.165 -161.778)"/><path class="i" d="M315.717,520.117a15.555,15.555,0,0,0-15.509,15.374l.5,172.607a15.509,15.509,0,0,0,15.509,15.645H571.9A119.174,119.174,0,0,0,690.41,617.833l9.067-80.47a15.508,15.508,0,0,0-15.412-17.246Zm391.811,0-.046-1h.046Z" transform="translate(-167.165 -161.778)"/><path class="g" d="M427.4,649.434H328.353a3.859,3.859,0,0,1,0-7.718H427.4C432.376,641.647,432.426,649.5,427.4,649.434Z" transform="translate(-167.165 -161.778)"/><path class="g" d="M560.826,669.62H328.353a3.859,3.859,0,0,1,0-7.718H560.826C565.8,661.833,565.852,669.69,560.826,669.62Z" transform="translate(-167.165 -161.778)"/></svg>