<svg xmlns="http://www.w3.org/2000/svg" width="116.328" height="45.984" viewBox="0 0 116.328 45.984"><defs><style>.a{fill:#afafaf;}</style></defs><path class="a" d="M-4.477,51.786h2.207a6.951,6.951,0,0,1-.644-3.129q0-5.974,4.184-17.058T9.316,14.724q2.944-4.5,7.724-4.506,4.138,0,4.138,3.127,0,4.78-6.621,18.3H22.1a76.75,76.75,0,0,1,4.874-11.587Q30.1,13.8,33.685,11.69T44.352,9.575a11.313,11.313,0,0,1,5.2,1.287,4.007,4.007,0,0,1,2.529,3.678,5.947,5.947,0,0,1-1.2,3.862,6.376,6.376,0,0,1-3.448,2.069,27.12,27.12,0,0,1-4,.782,41.82,41.82,0,0,1-4.23.184h-.828A24.008,24.008,0,0,0,35.8,26.771a20.647,20.647,0,0,1,3.4-.276q5.884,0,5.885,3.494a5.207,5.207,0,0,1-.276,1.655h0q-1.47,5.427-8.092,5.425a25.273,25.273,0,0,1-4.6-.46,61.619,61.619,0,0,0-1.931,6.713,41.822,41.822,0,0,1,7.081-.92,7.169,7.169,0,0,1,3.954,1.06,3.592,3.592,0,0,1,1.655,3.262,7.023,7.023,0,0,1-2.161,5.242,10.979,10.979,0,0,1-4.92,2.851,22.726,22.726,0,0,1-5.885.736q-5.974,0-8.828-3.77h0a8.606,8.606,0,0,1-1.839-5.7,30.607,30.607,0,0,1,.276-4.138,69.615,69.615,0,0,1,2.575-10.3h-7.54q-.828,1.75-2.391,5.1t-2.3,5.012H9.773L9.129,43.05c1.351-.124,2.391-.184,3.127-.184q5.423,0,5.425,3.678,0,4.69-3.586,6.762a16.858,16.858,0,0,1-8.552,2.069q-5.974,0-7.816-3.586h-2.2Zm49.47-7.173a34.61,34.61,0,0,1,1.425-8.736,69.5,69.5,0,0,1,3.081-9.1,58.94,58.94,0,0,1,3.31-6.8,28.889,28.889,0,0,1,3.954-5.2A15.208,15.208,0,0,1,62.326,11a20.26,20.26,0,0,1,7.4-1.241,16.917,16.917,0,0,1,8,1.793,6.188,6.188,0,0,1,3.405,5.931,10.851,10.851,0,0,1-1.931,6.3,6.051,6.051,0,0,1-5.242,2.8q-4.78,0-4.782-3.035a6.165,6.165,0,0,1,.322-1.609,6.212,6.212,0,0,0,.319-1.7q0-1.194-2.02-1.2a4.429,4.429,0,0,0-2.991,1.287,12.308,12.308,0,0,0-2.667,4q-1.237,2.711-1.655,3.724t-1.331,3.586h0q-2.944,7.724-2.94,10.943,0,2.668,2.575,2.667a5.064,5.064,0,0,0,4.046-2.25,12.965,12.965,0,0,0,2.391-4.831Q61.364,38,61.364,34.958a5.383,5.383,0,0,1,2.575-4.966A11.45,11.45,0,0,1,70,28.429q4.78,0,5.977,3.218h0a6.957,6.957,0,0,1,.368,2.391,21.579,21.579,0,0,1-2.621,9.75,23.185,23.185,0,0,1-6.3,8h0A17.568,17.568,0,0,1,56.4,55.559q-6.25,0-9.2-3.77h0A10.924,10.924,0,0,1,44.992,44.613Zm30.257,7.173h3.862a10.429,10.429,0,0,1-1.655-6.069q0-7.267,4.506-18.759,1.746-4.323,2.989-6.8a27.263,27.263,0,0,1,3.405-5.1,12.593,12.593,0,0,1,5.239-3.816,19.93,19.93,0,0,1,7.221-1.2q11.035,0,11.035,10.575a37.762,37.762,0,0,1-2.026,11.035h0a83.634,83.634,0,0,1-3.77,10.115h0q-3.4,7.082-6.713,10.023h0A15.838,15.838,0,0,1,88.4,55.556q-6.621,0-9.288-3.77H75.249ZM88.488,41.763h.279q-.552,3.22,2.023,3.218,2.112,0,3.951-3.494H94.56q1.56-3.315,4.138-10.621t2.575-9.426q0-2.207-1.931-2.207A3.74,3.74,0,0,0,96.307,20.7q-1.66,2.392-4.782,10.943h0A64.024,64.024,0,0,0,88.488,41.763Z" transform="translate(4.477 -9.575)"/></svg>