<svg xmlns="http://www.w3.org/2000/svg" width="69.217" height="69.217" viewBox="0 0 69.217 69.217"><defs><style>.a{fill:#afafaf;}</style></defs><path class="a" d="M34.608,69.217A34.608,34.608,0,1,1,69.217,34.608,34.636,34.636,0,0,1,34.608,69.217Zm0-63.408a28.8,28.8,0,1,0,28.8,28.8,28.87,28.87,0,0,0-28.8-28.8ZM51.581,37.96H26.571a2.011,2.011,0,0,1-2.013-1.993V33.048a2.005,2.005,0,0,1,2.013-2.01H51.8a2,2,0,0,1,2.01,2.01v2.9a2.373,2.373,0,0,1-2.229,2.01ZM45.1,26.8H19.874A2,2,0,0,1,17.861,24.8V21.89a1.97,1.97,0,0,1,2.01-1.791H45.1a1.925,1.925,0,0,1,1.788,1.785v2.9A1.97,1.97,0,0,1,45.1,26.8ZM19.874,42.421H45.1a2,2,0,0,1,2.007,2.01v2.9a2,2,0,0,1-1.993,2.01H19.874a2.368,2.368,0,0,1-2.01-2.229v-2.9A1.968,1.968,0,0,1,19.874,42.421Z"/></svg>