<svg xmlns="http://www.w3.org/2000/svg" width="171.625" height="32.609" viewBox="0 0 171.625 32.609"><defs><style>.a{fill:#afafaf;}</style></defs><path class="a" d="M28.175,14.58a11.191,11.191,0,0,1,1.716,6.364c0,7.938-6.793,18.235-12.3,25.529H5.077L0,16.3l11.013-1.073,2.646,21.453c2.5-4,5.578-10.369,5.578-14.731a12.045,12.045,0,0,0-1.073-5.363Zm14.3,13.229c2,0,7.151-.93,7.151-3.79a2.024,2.024,0,0,0-2.145-2.145C45.409,21.874,42.763,24.377,42.477,27.809Zm-.215,5.721c0,3.576,1.931,5.006,4.577,5.006a19.416,19.416,0,0,0,9.082-2.5l-1.359,9.01a24.9,24.9,0,0,1-10.154,2c-9.511,0-12.943-5.721-12.943-13.015,0-9.368,5.578-19.308,17.019-19.308,6.293,0,9.868,3.5,9.868,8.438,0,7.866-10.226,10.369-16.09,10.44ZM90.1,21.588a36.231,36.231,0,0,1-.358,4L86.456,46.474H75.729l3-19.165.215-2.145c0-1.43-.858-1.716-1.859-1.716a8.794,8.794,0,0,0-3.719,1.073L69.937,46.474H59.21l4.863-31.25h9.3l.143,2.5a16.412,16.412,0,0,1,9.225-3.075c5.435,0,7.366,2.86,7.366,7.008Zm31.822-3.5a16.3,16.3,0,0,1,10.011-3.432c5.435,0,7.366,2.86,7.366,7.008a28.6,28.6,0,0,1-.358,3.933l-3.289,20.881H124.928L128,26.951l.143-1.573c0-1.573-.858-1.931-1.931-1.931a8.075,8.075,0,0,0-3.576,1.073l-3.432,21.954H108.481l3.075-19.594.143-1.5c0-1.573-.858-1.931-1.931-1.931a9.121,9.121,0,0,0-3.719,1.073L102.689,46.4h-10.8l4.934-31.178h9.153l.358,2.574a14.632,14.632,0,0,1,8.867-3.146c3.432,0,5.578,1.43,6.722,3.432Zm38.687,9.082c0-2.5-.644-4.291-2.5-4.291-4.291,0-5.149,7.509-5.149,11.3,0,2.932.787,4.72,2.717,4.72,4,0,4.934-7.866,4.934-11.728Zm-18.593,6.579c0-9.868,5.292-19.093,17.234-19.093,9.082,0,12.371,5.363,12.371,12.729,0,9.725-5.149,19.808-17.449,19.808-9.082,0-12.157-5.935-12.157-13.444Z" transform="translate(0 -14.58)"/></svg>