<svg xmlns="http://www.w3.org/2000/svg" width="104.54" height="46.379" viewBox="0 0 104.54 46.379"><defs><style>.a{fill:#afafaf;}</style></defs><path class="a" d="M104.542,28.294l-.523,4.606-5.636.376-.327,2.957,5.636-.376-.523,4.606-5.619.359-.376,3.283,5.619-.359-.49,4.263-10.569.67L93.81,30.189,86.083,49.04l-5.211.327L76.985,30.124l4.95-.327,2.222,12.97,5.178-13.46,15.208-1.013ZM69.715,50.069l4.623-.294,2.107-19.618-4.639.31ZM26.46,52.781,23.291,46.9l-.572,6.109-4.606.278.441-4.753A12.159,12.159,0,0,1,9.26,54.381C3.9,54.708-.492,50.967.047,44.874A11.873,11.873,0,0,1,11.073,34.191c6.158-.392,7.775,3.79,8.38,4.7l.457-5.031,6.354-.408c3.283-.212,6.322.6,6.942,3.871l.425-4.345L44.217,32.3l-.441,4.557-5.946.392-.278,2.924,5.946-.376-.441,4.557-5.946.376-.31,3.251,5.93-.376L42.387,51l8.984-19.145,3.888-.261L60.5,49.661l1.454-13.983-3.643.229.474-4.557,12.251-.8-.49,4.574-3.969.261L64.995,50.4,55.52,51l-.7-2.548-6.436.408-1.307,2.663L26.46,52.781ZM19.224,41.313l-4.312.278c-1.094-2.026-2.352-2.712-4.3-2.581a6.2,6.2,0,0,0-5.652,5.44c-.229,2.614,1.192,5.309,4.688,5.1,2.091-.131,3.479-1.4,4.721-3.087l4.41-.278Zm9.164-1.258c.2-2.107-1.241-2.222-4.263-2.026l-.441,4.655c2.32-.147,4.492-.343,4.7-2.63Zm3.447,11.565.947-9.8a7.418,7.418,0,0,1-4.557,4.345ZM53.952,44.27,52.662,38.1l-2.581,6.42ZM26.166,32.084l-.7-2.859L19,29.65l-1.323,2.973-5.211.343,9.311-19.912,3.9-.261,5.015,16.662,1.617-17.1,4.41-.294,6.175,10.389,1.062-10.879,4.655-.31-.653,6.73c1.209-2.205,3.741-7.3,10.389-7.759a8.52,8.52,0,0,1,8.723,4.95l.539-5.227,6.42-.441c2.075-.147,4.541.049,5.93,1.584L79.239,9.15,84.5,8.79l2.107,7.057,3.757-7.465,5.064-.359L88.3,20.829l-.784,7.236-4.639.31.784-7.236-2.581-7.024a7.863,7.863,0,0,1-5.227,8.1l4.116,6.338-5.946.392-3.136-6.011-.653,6.256L65.6,29.5l.539-5.146c-1.094,1.519-3.218,5.783-9.736,6.207-4.28.278-7.449-1.683-9.05-6.4L46.7,30.745l-4.084.261-6.142-10.34L35.445,31.48l-9.278.6ZM71.349,18.673a9.636,9.636,0,0,0,3.528-.7,2.35,2.35,0,0,0,1.241-1.977c.1-.866-.1-1.437-.555-1.7-.588-.343-1.732-.457-3.741-.327l-.474,4.7ZM53.527,24.341a4.155,4.155,0,0,0,3.479,1.29,5.186,5.186,0,0,0,2.173-.67,7.708,7.708,0,0,0,2.467-2.336L56.059,23l.392-3.9,10.307-.7.2-1.96-5.1.343a7.827,7.827,0,0,0-1.813-1.323,4.326,4.326,0,0,0-1.993-.408,6.1,6.1,0,0,0-3.594,1.5,5.658,5.658,0,0,0-2.107,3.986,4.458,4.458,0,0,0,1.176,3.806ZM20.645,25.681l3.888-.261-1.356-6.142Z" transform="translate(-0.002 -8.023)"/></svg>