<svg xmlns="http://www.w3.org/2000/svg" xmlns:xlink="http://www.w3.org/1999/xlink" width="798.725" height="616.606" viewBox="0 0 798.725 616.606"><defs><style>.a{fill:#f0f0f0;}.b{fill:#fff;}.c{fill:#e4e4e4;}.d,.h,.l,.p{fill:#3075c4;}.d,.p{stroke:#000;}.d{stroke-width:3px;}.e{fill:#3f3d56;}.f{fill:#e6e6e6;}.g{fill:#6c63ff;}.i{fill:#174e8e;}.j{fill:#4b4b4b;}.k{fill:#cacaca;}.l{font-size:32px;}.l,.m{font-family:Poppins-Bold, Poppins;font-weight:700;letter-spacing:0.06em;}.m{fill:#fcfcfc;font-size:75px;}.n{opacity:0.1;}.o{fill:#ccc;}.p{stroke-width:2px;}.q{filter:url(#c);}.r{filter:url(#a);}</style><filter id="a" x="318.092" y="0" width="223.427" height="299.217" filterUnits="userSpaceOnUse"><feOffset dy="3" input="SourceAlpha"/><feGaussianBlur stdDeviation="3" result="b"/><feFlood flood-opacity="0.161"/><feComposite operator="in" in2="b"/><feComposite in="SourceGraphic"/></filter><filter id="c" x="0" y="135.278" width="173.159" height="116.802" filterUnits="userSpaceOnUse"><feOffset dy="3" input="SourceAlpha"/><feGaussianBlur stdDeviation="3" result="d"/><feFlood flood-opacity="0.078"/><feComposite operator="in" in2="d"/><feComposite in="SourceGraphic"/></filter></defs><g transform="translate(70.473 17.664)"><path class="a" d="M828.549,210.725c4.653-18.979.229-41.112-14.8-53.6a90.031,90.031,0,0,1-22.02,57.757c-5.393,6.171-12.034,12.472-12.3,20.663-.163,5.1,2.325,9.992,5.754,13.767s7.754,6.6,12.027,9.381l.628,1.107C811.595,245.929,823.9,229.7,828.549,210.725Z" transform="translate(-235.874 -150.529)"/><path class="b" d="M813.443,157.407a76.952,76.952,0,0,1,2.45,47.282,33.137,33.137,0,0,1-4.048,9.561,19.006,19.006,0,0,1-7.557,6.554c-2.825,1.428-5.879,2.563-8.308,4.653a11.637,11.637,0,0,0-3.915,8.675c-.117,4.087,1.241,7.972,2.7,11.725,1.621,4.167,3.371,8.47,3,13.032-.045.553.815.591.86.039.652-7.938-4.739-14.643-5.594-22.342-.4-3.593.282-7.327,2.939-9.947,2.323-2.291,5.472-3.463,8.344-4.884a20.281,20.281,0,0,0,7.628-6.133,30.635,30.635,0,0,0,4.4-9.37,74.655,74.655,0,0,0,2.985-23.142,78.316,78.316,0,0,0-5.121-26.1c-.2-.516-.958-.112-.763.4Z" transform="translate(-235.874 -150.529)"/><path class="b" d="M817.533,199.737a11.545,11.545,0,0,0,12.52-8.171c.156-.532-.663-.8-.819-.266a10.691,10.691,0,0,1-11.661,7.577C817.023,198.8,816.987,199.665,817.533,199.737Z" transform="translate(-235.874 -150.529)"/><path class="b" d="M805.816,220.269a22.253,22.253,0,0,1-4.721-15.515c.043-.553-.817-.591-.86-.039a23.146,23.146,0,0,0,4.945,16.135c.345.435.979-.148.636-.581Z" transform="translate(-235.874 -150.529)"/><path class="b" d="M818.083,174.658a6.535,6.535,0,0,1-5.675-2.5c-.34-.439-.973.145-.636.581a7.323,7.323,0,0,0,6.272,2.779.445.445,0,0,0,.45-.411.433.433,0,0,0-.411-.45Z" transform="translate(-235.874 -150.529)"/><path class="a" d="M748.735,169.416c.2.28.409.56.611.847a86.066,86.066,0,0,1,7.223,11.948c.166.32.329.647.486.971A90.732,90.732,0,0,1,765.86,215.4a88.112,88.112,0,0,1,.062,13.388c-.441,6.156-1.408,12.8.164,18.568a15.114,15.114,0,0,0,.583,1.778l29.769,11.347c.081-.008.159-.009.24-.017l1.168.507c.032-.229.061-.467.094-.7.019-.133.032-.268.052-.4.011-.089.021-.179.036-.258,0-.03.007-.059.008-.082.015-.08.02-.156.032-.229q.247-1.994.467-4c0-.007,0-.007,0-.016a129.556,129.556,0,0,0,.007-30.63c-.04-.3-.077-.613-.131-.921a84.073,84.073,0,0,0-2.977-13.394,74.339,74.339,0,0,0-2.609-7.054A61.811,61.811,0,0,0,782.5,186.96c-8.528-9.707-20.066-16.579-32.789-17.485C749.382,169.453,749.063,169.432,748.735,169.416Z" transform="translate(-235.874 -150.529)"/><path class="b" d="M748.658,169.819A76.953,76.953,0,0,1,779.082,206.1a33.139,33.139,0,0,1,2.525,10.071,19.007,19.007,0,0,1-2.088,9.783c-1.4,2.841-3.151,5.586-3.832,8.717a11.638,11.638,0,0,0,2.1,9.284c2.367,3.334,5.79,5.618,9.216,7.736,3.8,2.351,7.791,4.733,10.239,8.6.3.469,1.007-.019.71-.487-4.259-6.73-12.6-8.838-17.918-14.471-2.482-2.628-4.186-6.02-3.642-9.711.476-3.227,2.284-6.059,3.722-8.924a20.283,20.283,0,0,0,2.4-9.489,30.636,30.636,0,0,0-2.128-10.131A74.656,74.656,0,0,0,768.831,186.8a78.319,78.319,0,0,0-19.8-17.759c-.468-.294-.833.487-.368.779Z" transform="translate(-235.874 -150.529)"/><path class="b" d="M777.409,201.155a11.545,11.545,0,0,0,5.077-14.062c-.2-.518-1.011-.238-.815.281a10.691,10.691,0,0,1-4.749,13.071c-.482.273.008.982.487.71Z" transform="translate(-235.874 -150.529)"/><path class="b" d="M780.415,224.6a22.253,22.253,0,0,1-13.11-9.545c-.3-.468-1.008.02-.71.487a23.147,23.147,0,0,0,13.663,9.905c.538.139.693-.708.158-.847Z" transform="translate(-235.874 -150.529)"/><path class="b" d="M762.749,180.8a6.535,6.535,0,0,1-6.036,1.421c-.535-.146-.69.7-.158.847a7.323,7.323,0,0,0,6.681-1.557.445.445,0,0,0,.112-.6.433.433,0,0,0-.6-.112Z" transform="translate(-235.874 -150.529)"/><path class="c" d="M709.374,598.115c-99.8,0-181-81.2-181-181s81.2-181,181-181a182.794,182.794,0,0,1,31.5,2.731,1,1,0,1,1-.368,1.966,180.78,180.78,0,0,0-31.132-2.7c-98.7,0-179,80.3-179,179s80.3,179,179,179,179-80.3,179-179a178.548,178.548,0,0,0-46.7-120.569,1,1,0,1,1,1.478-1.348,180.544,180.544,0,0,1,47.217,121.916C890.374,516.919,809.178,598.115,709.374,598.115Z" transform="translate(-235.874 -150.529)"/><circle class="d" cx="35.811" cy="35.811" r="35.811" transform="translate(517.496 76.041)"/><path class="b" d="M784.3,281.019a3.982,3.982,0,0,1-3.187-1.594L771.34,266.4a3.983,3.983,0,0,1,6.374-4.78l6.392,8.522,16.416-24.624a3.984,3.984,0,1,1,6.629,4.419l-19.54,29.309a3.985,3.985,0,0,1-3.2,1.773Z" transform="translate(-235.874 -150.529)"/><g class="r" transform="matrix(1, 0, 0, 1, -70.47, -17.66)"><path class="e" d="M524.814,153.894h-1.391V115.775a22.076,22.076,0,0,0-22.09-22.062H420.468a22.076,22.076,0,0,0-22.091,22.062V324.9a22.076,22.076,0,0,0,22.09,22.062h80.864a22.076,22.076,0,0,0,22.09-22.062V181.027h1.391Z" transform="translate(-79.31 97.44) rotate(-20)"/></g><path class="b" d="M526.826,121.26V333.336a16.732,16.732,0,0,1-16.724,16.73H427.681a16.736,16.736,0,0,1-16.738-16.733V121.26a16.735,16.735,0,0,1,16.737-16.73h10a7.956,7.956,0,0,0,7.36,10.953h46.988a7.956,7.956,0,0,0,7.36-10.953H510.1a16.732,16.732,0,0,1,16.73,16.724Z" transform="translate(-158.465 78.539) rotate(-20)"/><path class="f" d="M649.813,286.17l-93.5,33.61a2.362,2.362,0,1,1-1.6-4.445l93.5-33.61a2.362,2.362,0,0,1,1.6,4.445Z" transform="translate(-235.874 -150.529)"/><path class="f" d="M622.046,307.48l-30.755,11.055a2.362,2.362,0,0,1-1.6-4.445l30.755-11.055a2.362,2.362,0,1,1,1.6,4.445Z" transform="translate(-235.874 -150.529)"/><path class="f" d="M629.361,327.831l-30.755,11.055a2.362,2.362,0,1,1-1.6-4.445l30.755-11.055a2.362,2.362,0,0,1,1.6,4.445Z" transform="translate(-235.874 -150.529)"/><path class="f" d="M633.108,338.255,602.352,349.31a2.362,2.362,0,1,1-1.6-4.445L631.51,333.81a2.362,2.362,0,0,1,1.6,4.445Z" transform="translate(-235.874 -150.529)"/><path class="f" d="M642.9,311.313l-65.253,23.456a2.362,2.362,0,1,1-1.6-4.445L641.3,306.868a2.362,2.362,0,1,1,1.6,4.445Z" transform="translate(-235.874 -150.529)"/><path class="g" d="M629.758,363.558l-11.167,4.014a4.016,4.016,0,1,1-2.717-7.559L627.041,356a4.016,4.016,0,0,1,2.717,7.559Z" transform="translate(-235.874 -150.529)"/><circle class="b" cx="1.553" cy="1.553" r="1.553" transform="translate(301.329 25.827)"/><path class="a" d="M363.157,272.252c17.406-20.488,45.647-33.4,71.684-26.706a123.863,123.863,0,0,0-46.634,71.113c-2.531,10.987-4.2,23.471-13.122,30.366-5.55,4.291-13.014,5.464-19.986,4.685s-13.608-3.323-20.155-5.845l-1.741.193C337.581,319.535,345.752,292.741,363.157,272.252Z" transform="translate(-235.874 -150.529)"/><path class="b" d="M434.775,246.107A105.87,105.87,0,0,0,380.089,281.5a45.591,45.591,0,0,0-7.4,12.221,26.148,26.148,0,0,0-1.214,13.708c.685,4.3,1.883,8.62,1.511,13.013a16.011,16.011,0,0,1-6.514,11.358c-4.461,3.426-9.887,5.044-15.248,6.442-5.953,1.552-12.16,3.07-16.944,7.167-.58.5-1.316-.432-.737-.928,8.323-7.126,20.145-6.522,29.417-11.776,4.327-2.452,7.941-6.222,8.719-11.3.681-4.436-.551-8.892-1.282-13.24a27.9,27.9,0,0,1,.687-13.448,42.149,42.149,0,0,1,6.9-12.46,102.713,102.713,0,0,1,23.391-21.986,107.747,107.747,0,0,1,33.229-15.338c.735-.2.9.978.168,1.173Z" transform="translate(-235.874 -150.529)"/><path class="b" d="M384.289,275.674a15.884,15.884,0,0,1-.985-20.544c.467-.6,1.425.1.957.7a14.708,14.708,0,0,0,.955,19.109c.524.554-.407,1.288-.928.737Z" transform="translate(-235.874 -150.529)"/><path class="b" d="M370.846,305.29a30.615,30.615,0,0,0,21.1-7.246c.581-.494,1.318.434.737.928a31.844,31.844,0,0,1-21.974,7.5c-.763-.034-.624-1.211.135-1.177Z" transform="translate(-235.874 -150.529)"/><path class="b" d="M411.8,254.842a8.991,8.991,0,0,0,7.362,4.311c.763.025.623,1.2-.135,1.177a10.075,10.075,0,0,1-8.155-4.751.612.612,0,0,1,.1-.832A.6.6,0,0,1,411.8,254.842Z" transform="translate(-235.874 -150.529)"/><path class="a" d="M473.557,327.924c-.477,0-.954,0-1.437,0a118.4,118.4,0,0,0-19.142,1.58c-.49.073-.986.154-1.474.241a124.826,124.826,0,0,0-43.022,16.163,121.224,121.224,0,0,0-14.975,10.724c-6.508,5.454-13.13,11.886-20.832,14.787a20.8,20.8,0,0,1-2.452.784l-36.651-24.038c-.056-.1-.118-.185-.174-.281l-1.507-.893c.229-.221.471-.445.7-.665.132-.129.273-.252.4-.38.091-.084.182-.168.259-.249.03-.028.061-.056.085-.076.077-.081.157-.148.229-.221q2.024-1.883,4.082-3.745c.005-.008.005-.008.019-.011,10.478-9.428,21.834-18.065,34.14-24.7.37-.2.746-.408,1.133-.6a115.675,115.675,0,0,1,17.332-7.48,102.263,102.263,0,0,1,9.967-2.779,85.038,85.038,0,0,1,26.536-1.658c17.7,1.681,34.66,9,45.927,22.457C472.994,327.233,473.274,327.572,473.557,327.924Z" transform="translate(-235.874 -150.529)"/><path class="b" d="M473.169,328.336a105.87,105.87,0,0,0-64.97-4.669,45.59,45.59,0,0,0-13.263,5.305,26.148,26.148,0,0,0-9.222,10.215c-2.042,3.846-3.686,8.017-6.628,11.3a16.011,16.011,0,0,1-12.04,5.147c-5.624.049-10.931-1.926-16.053-4.037-5.687-2.344-11.558-4.87-17.844-4.479-.762.047-.79-1.137-.03-1.184,10.936-.679,20.011,6.921,30.578,8.308,4.931.647,10.086-.187,13.762-3.769,3.214-3.132,4.913-7.431,6.948-11.344a27.9,27.9,0,0,1,8.645-10.324,42.149,42.149,0,0,1,13.01-5.8,102.713,102.713,0,0,1,31.914-3.471,107.747,107.747,0,0,1,35.765,7.761c.7.285.128,1.321-.572,1.038Z" transform="translate(-235.874 -150.529)"/><path class="b" d="M415.057,321.547a15.884,15.884,0,0,1,11.583-17c.736-.2,1.081.934.344,1.134a14.708,14.708,0,0,0-10.742,15.832c.084.758-1.1.783-1.184.03Z" transform="translate(-235.874 -150.529)"/><path class="b" d="M386.493,337.1a30.615,30.615,0,0,0,21.211,6.92c.762-.045.791,1.14.03,1.184a31.844,31.844,0,0,1-22.057-7.245c-.589-.487.231-1.343.816-.859Z" transform="translate(-235.874 -150.529)"/><path class="b" d="M449.567,321.479a8.991,8.991,0,0,0,3.282,7.875c.594.479-.226,1.335-.816.859a10.075,10.075,0,0,1-3.651-8.7.612.612,0,0,1,.577-.607.6.6,0,0,1,.607.577Z" transform="translate(-235.874 -150.529)"/><path class="a" d="M885.524,666.043c18.979,4.653,41.112.229,53.6-14.8a90.032,90.032,0,0,1-57.757-22.02c-6.171-5.393-12.472-12.034-20.663-12.3-5.1-.163-9.992,2.325-13.767,5.754s-6.6,7.754-9.381,12.027l-1.107.628C850.32,649.088,866.545,661.389,885.524,666.043Z" transform="translate(-235.874 -150.529)"/><path class="b" d="M938.842,650.936a76.953,76.953,0,0,1-47.282,2.45A33.14,33.14,0,0,1,882,649.338a19.007,19.007,0,0,1-6.554-7.557c-1.429-2.825-2.563-5.879-4.653-8.308a11.637,11.637,0,0,0-8.675-3.915c-4.087-.117-7.972,1.241-11.725,2.7-4.167,1.621-8.47,3.371-13.032,3-.553-.045-.591.815-.039.86,7.938.652,14.643-4.739,22.342-5.594,3.593-.4,7.327.282,9.947,2.939,2.291,2.323,3.463,5.472,4.884,8.344a20.28,20.28,0,0,0,6.133,7.628,30.637,30.637,0,0,0,9.371,4.4,74.658,74.658,0,0,0,23.142,2.986,78.317,78.317,0,0,0,26.1-5.121c.516-.2.112-.958-.4-.763Z" transform="translate(-235.874 -150.529)"/><path class="b" d="M896.512,655.026a11.545,11.545,0,0,0,8.171,12.52c.532.156.8-.663.266-.819a10.691,10.691,0,0,1-7.577-11.661C897.445,654.516,896.584,654.48,896.512,655.026Z" transform="translate(-235.874 -150.529)"/><path class="b" d="M875.98,643.309a22.253,22.253,0,0,1,15.515-4.721c.553.043.591-.817.039-.86a23.146,23.146,0,0,0-16.135,4.945C874.964,643.018,875.548,643.652,875.98,643.309Z" transform="translate(-235.874 -150.529)"/><path class="b" d="M921.591,655.577a6.535,6.535,0,0,1,2.5-5.675c.439-.34-.145-.973-.581-.636a7.323,7.323,0,0,0-2.779,6.272.445.445,0,0,0,.411.45.433.433,0,0,0,.45-.411Z" transform="translate(-235.874 -150.529)"/><path class="a" d="M926.833,586.228c-.28.2-.56.409-.847.611a86.055,86.055,0,0,1-11.947,7.223c-.32.166-.647.329-.971.486a90.732,90.732,0,0,1-32.223,8.805,88.113,88.113,0,0,1-13.388.062c-6.156-.441-12.8-1.408-18.568.164a15.114,15.114,0,0,0-1.778.583l-11.347,29.769c.008.081.009.159.017.24l-.507,1.168c.229.032.467.061.7.094.133.019.268.032.4.052.089.011.179.021.258.036.03,0,.06.007.082.008.08.015.156.02.229.032q1.994.247,4,.467c.007,0,.007,0,.016,0a129.563,129.563,0,0,0,30.63.007c.3-.04.613-.077.921-.131a84.079,84.079,0,0,0,13.394-2.977,74.306,74.306,0,0,0,7.054-2.609,61.812,61.812,0,0,0,16.335-10.326c9.707-8.528,16.579-20.066,17.484-32.789C926.8,586.876,926.817,586.556,926.833,586.228Z" transform="translate(-235.874 -150.529)"/><path class="b" d="M926.43,586.151a76.952,76.952,0,0,1-36.277,30.424,33.142,33.142,0,0,1-10.071,2.525,19.006,19.006,0,0,1-9.783-2.088c-2.841-1.4-5.586-3.152-8.717-3.832a11.638,11.638,0,0,0-9.284,2.1c-3.334,2.367-5.618,5.79-7.735,9.216-2.351,3.8-4.733,7.791-8.6,10.239-.469.3.019,1.007.487.71,6.73-4.259,8.838-12.6,14.471-17.918,2.628-2.482,6.02-4.186,9.711-3.642,3.227.476,6.059,2.284,8.924,3.722a20.282,20.282,0,0,0,9.489,2.4,30.635,30.635,0,0,0,10.131-2.128,74.659,74.659,0,0,0,20.275-11.549,78.315,78.315,0,0,0,17.758-19.8c.294-.468-.487-.833-.779-.368Z" transform="translate(-235.874 -150.529)"/><path class="b" d="M895.094,614.9a11.545,11.545,0,0,0,14.062,5.077c.518-.2.238-1.011-.281-.815a10.691,10.691,0,0,1-13.071-4.749c-.273-.482-.982.007-.71.487Z" transform="translate(-235.874 -150.529)"/><path class="b" d="M871.646,617.909a22.253,22.253,0,0,1,9.545-13.11c.468-.3-.02-1.008-.487-.71a23.146,23.146,0,0,0-9.905,13.663c-.139.538.708.693.847.158Z" transform="translate(-235.874 -150.529)"/><path class="b" d="M915.449,600.243a6.535,6.535,0,0,1-1.421-6.036c.146-.535-.7-.69-.847-.158a7.324,7.324,0,0,0,1.557,6.681.445.445,0,0,0,.6.112A.433.433,0,0,0,915.449,600.243Z" transform="translate(-235.874 -150.529)"/><path class="e" d="M961.571,483.63l-28.94,48.7,1.1.58-9.8,18.58-2.04-1.08-6.44,10.83,1.6.92-10.5,18.18-1.82-1.05L810.3,738.21a18.274,18.274,0,0,1-25.02,6.37L609.731,640.27a18.272,18.272,0,0,1-6.37-25.02l151.27-254.58a18.274,18.274,0,0,1,25.02-6.37L955.2,458.61A18.281,18.281,0,0,1,961.571,483.63Z" transform="translate(-235.874 -150.529)"/><path class="b" d="M791.537,734.753,615.369,630.076a5.634,5.634,0,0,1-1.963-7.712L765.679,366.09a5.634,5.634,0,0,1,7.712-1.963L949.56,468.8a5.634,5.634,0,0,1,1.963,7.712L799.25,732.79a5.634,5.634,0,0,1-7.713,1.963Z" transform="translate(-235.874 -150.529)"/><circle class="b" cx="1.553" cy="1.553" r="1.553" transform="translate(626.475 258.78)"/><path class="f" d="M86.273,24.148H1.569A1.57,1.57,0,0,1,0,22.579V1.569A1.571,1.571,0,0,1,1.569,0h84.7a1.57,1.57,0,0,1,1.568,1.568V22.58a1.571,1.571,0,0,1-1.569,1.568ZM1.569.627a.942.942,0,0,0-.941.941V22.58a.942.942,0,0,0,.941.941h84.7a.942.942,0,0,0,.941-.941V1.568a.942.942,0,0,0-.941-.941Z" transform="translate(516.831 360.757) rotate(30)"/><path class="f" d="M1.1,0a1.1,1.1,0,1,0,0,2.2H52.862A1.1,1.1,0,1,0,52.946,0H1.1Z" transform="translate(536.141 380.643) rotate(30)"/><path class="f" d="M1.1,0a1.1,1.1,0,0,0,0,2.2H52.862A1.1,1.1,0,0,0,52.946,0H1.1Z" transform="translate(532.847 386.348) rotate(30)"/><path class="f" d="M86.273,24.148H1.568A1.57,1.57,0,0,1,0,22.579V1.569A1.571,1.571,0,0,1,1.568,0h84.7a1.57,1.57,0,0,1,1.568,1.568V22.58a1.571,1.571,0,0,1-1.569,1.568ZM1.568.627a.942.942,0,0,0-.941.941V22.58a.942.942,0,0,0,.941.941h84.7a.942.942,0,0,0,.941-.941V1.568a.942.942,0,0,0-.941-.941Z" transform="translate(499.32 391.087) rotate(30)"/><path class="f" d="M1.1,0a1.1,1.1,0,1,0,0,2.2H52.862A1.1,1.1,0,0,0,52.9,0H1.1Z" transform="translate(518.573 411.071) rotate(30)"/><path class="f" d="M1.1,0a1.1,1.1,0,1,0,0,2.2H52.862A1.1,1.1,0,1,0,52.9,0H1.1Z" transform="translate(515.279 416.777) rotate(30)"/><path class="f" d="M86.273,24.148H1.568A1.57,1.57,0,0,1,0,22.579V1.569A1.571,1.571,0,0,1,1.569,0h84.7a1.571,1.571,0,0,1,1.568,1.569V22.58a1.571,1.571,0,0,1-1.569,1.568ZM1.569.627a.942.942,0,0,0-.941.941V22.58a.942.942,0,0,0,.941.941h84.7a.942.942,0,0,0,.941-.941V1.568a.942.942,0,0,0-.941-.941Z" transform="translate(481.752 421.515) rotate(30)"/><path class="f" d="M1.1,0a1.1,1.1,0,1,0,0,2.2H52.862A1.1,1.1,0,1,0,52.946,0H1.1Z" transform="translate(501.005 441.501) rotate(30)"/><path class="f" d="M1.1,0a1.1,1.1,0,1,0,0,2.2H52.862A1.1,1.1,0,0,0,52.946,0H1.1Z" transform="translate(497.71 447.207) rotate(30)"/><g transform="translate(518.956 368.17) rotate(30)"><ellipse class="h" cx="6.588" cy="6.588" rx="6.588" ry="6.588" transform="translate(0 0)"/><path class="f" d="M.137,0A2.315,2.315,0,0,0,0,1.1,2.318,2.318,0,0,0,.137,2.2H6.615c.076.01.138-.474.14-1.08A2.447,2.447,0,0,0,6.62,0H.137Z" transform="translate(3.297 5.357)"/></g><g transform="translate(501.381 398.611) rotate(30)"><ellipse class="h" cx="6.588" cy="6.588" rx="6.588" ry="6.588" transform="translate(0 0)"/><path class="f" d="M.137,0A2.315,2.315,0,0,0,0,1.1,2.317,2.317,0,0,0,.137,2.2H6.615c.076.01.138-.474.14-1.08A2.447,2.447,0,0,0,6.62,0H.137Z" transform="translate(3.297 5.357)"/></g><g transform="translate(483.813 429.04) rotate(30)"><ellipse class="h" cx="6.588" cy="6.588" rx="6.588" ry="6.588" transform="translate(0 0)"/><path class="f" d="M.137,0A2.315,2.315,0,0,0,0,1.1,2.317,2.317,0,0,0,.137,2.2H6.615c.076.01.138-.473.14-1.08A2.447,2.447,0,0,0,6.62,0H.137Z" transform="translate(3.297 5.357)"/></g><path class="f" d="M18.286,51.267a1.849,1.849,0,0,1-1.654-1.01A21.79,21.79,0,0,0,3.7,39.373a24.723,24.723,0,0,0-3.465-.785L0,38.552,12.33,0l.208.007C36.494,6.517,50.2,25.715,53.83,31.445a1.852,1.852,0,0,1-.74,2.647L19.118,51.07A1.858,1.858,0,0,1,18.286,51.267Z" transform="translate(599.787 308.848) rotate(30)"/><ellipse class="e" cx="3.297" cy="3.297" rx="3.297" ry="3.297" transform="translate(568.847 351.034) rotate(30)"/><path class="h" d="M35.629,53.392a1.852,1.852,0,0,1-.865-.216L.989,35.358a1.854,1.854,0,0,1-.718-2.607A74.867,74.867,0,0,1,17.165,13.8,61.58,61.58,0,0,1,56.595,0a62.593,62.593,0,0,1,16.1,2.179l.208.056L60.568,40.786l-.174-.026a27.484,27.484,0,0,0-3.354-.3A20.405,20.405,0,0,0,37.3,52.344a1.819,1.819,0,0,1-1.08.952A1.867,1.867,0,0,1,35.629,53.392Z" transform="translate(548.775 276.886) rotate(30)"/><path class="i" d="M12.215,0,3.495,38.97A24.883,24.883,0,0,0,0,38.178L12.211,0Z" transform="translate(599.917 309.161) rotate(30)"/><path class="j" d="M236.3,633.134H723.479V351.086a7.98,7.98,0,0,0-7.971-7.971H244.269a7.98,7.98,0,0,0-7.971,7.971Z" transform="translate(-235.874 -150.529)"/><rect class="b" width="457.077" height="259.491" transform="translate(15.476 203.611)"/><path class="e" d="M235.874,625.5v34.8a10.987,10.987,0,0,0,10.987,10.987H426.676v68.689h-2.389a1.427,1.427,0,0,0-1.427,1.427v4.778a1.427,1.427,0,0,0,1.427,1.427H535.914a1.427,1.427,0,0,0,1.427-1.427V741.41a1.427,1.427,0,0,0-1.427-1.427h-2.389V671.295H713.34a10.987,10.987,0,0,0,10.987-10.987V625.5Z" transform="translate(-235.874 -150.529)"/><path class="h" d="M638.684,584.795H612.832a8.749,8.749,0,0,1,0-17.5h25.852a8.749,8.749,0,0,1,0,17.5Z" transform="translate(-235.874 -150.529)"/><path class="k" d="M884.359,749.471H237.065a1.191,1.191,0,1,1,0-2.381H884.359a1.191,1.191,0,0,1,0,2.381Z" transform="translate(-235.874 -150.529)"/><circle class="b" cx="1.696" cy="1.696" r="1.696" transform="translate(242.106 194.707)"/><g transform="translate(-22.748 231.392)"><text class="l" transform="translate(207 106.55)"><tspan x="0" y="0">OPTIMUSE.</tspan></text><circle class="h" cx="25.5" cy="25.5" r="25.5" transform="translate(140 67.55)"/><text class="m" transform="translate(151 118.55)"><tspan x="0" y="0">P</tspan></text></g><g transform="translate(310.373 74.416) rotate(-19)"><path class="e" d="M217.787,215.6a10.669,10.669,0,0,1-2.645-.342l-.17-.047-.158-.079a43.82,43.82,0,0,1-14.32-11.241,42.555,42.555,0,0,1-7.23-12.839,49.415,49.415,0,0,1-2.794-17.408c0-.124,0-.22,0-.286a6.855,6.855,0,0,1,4.072-6.436c1.893-.789,19.081-7.848,20.323-8.359a6.6,6.6,0,0,1,5.233-.023c.9.366,16.785,6.865,20.218,8.5a7.317,7.317,0,0,1,4.483,6.235,50.777,50.777,0,0,1-3.549,19.153,44.35,44.35,0,0,1-7.97,12.845c-6.506,7.322-13.014,9.917-13.077,9.94A7.111,7.111,0,0,1,217.787,215.6Zm-1.53-3.791a5.662,5.662,0,0,0,2.71.007,36.339,36.339,0,0,0,11.613-8.945c7.033-7.914,10.6-17.863,10.606-29.57a3.742,3.742,0,0,0-2.421-3c-3.367-1.6-19.882-8.356-20.049-8.424l-.046-.019a2.992,2.992,0,0,0-2.207-.053l-.152.071c-.184.076-18.429,7.569-20.375,8.38a3.247,3.247,0,0,0-1.846,3.1c0,.082,0,.2-.005.357-.155,8.01,1.7,27.722,22.172,38.094Z" transform="translate(-190.459 -158)"/><path class="h" d="M226.545,171.156s-18.411,7.562-20.384,8.384a5.025,5.025,0,0,0-2.959,4.767c0,1.973-1.479,27.712,23.342,40.157a7.66,7.66,0,0,0,3.962,0c1.709-.623,23.408-11.144,23.408-40.239a5.486,5.486,0,0,0-3.452-4.6c-3.452-1.644-20.142-8.466-20.142-8.466A4.85,4.85,0,0,0,226.545,171.156Z" transform="translate(-201.379 -168.945)"/><path class="n" d="M270.358,215.286v40.338s-18.575-8.941-18.411-32.448Z" transform="translate(-243.221 -207.156)"/><path class="b" d="M157.152,160.762l-5.917-7.608,3.441-2.676,2.8,3.6,9.465-9.991,3.165,3Z" transform="translate(-133.282 -123.64)"/></g><g transform="translate(-61.473 111.468)"><g class="q" transform="matrix(1, 0, 0, 1, -9, -129.13)"><path class="b" d="M536.634,411.778H408.816a23.671,23.671,0,0,1-23.645-23.645V316.672a3.7,3.7,0,0,1,3.7-3.7H536.634a3.7,3.7,0,0,1,3.7,3.7v91.409a3.7,3.7,0,0,1-3.7,3.7Z" transform="translate(-376.17 -171.7)"/></g><path class="o" d="M534.981,366.5H445.633a3.093,3.093,0,0,1,0-6.186h89.348a3.093,3.093,0,0,1,0,6.186Z" transform="translate(-412.727 -323.57)"/><path class="o" d="M534.981,407.5H445.633a3.093,3.093,0,0,1,0-6.186h89.348a3.093,3.093,0,0,1,0,6.186Z" transform="translate(-412.727 -343.263)"/><path class="o" d="M534.981,449.676H445.633a3.093,3.093,0,0,1,0-6.186h89.348a3.093,3.093,0,0,1,0,6.186Z" transform="translate(-412.727 -363.52)"/><ellipse class="p" cx="17.741" cy="17.741" rx="17.741" ry="17.741" transform="translate(134.187 0)"/><path class="b" d="M666.573,324.44a1.973,1.973,0,0,1-1.579-.789l-4.84-6.453a1.973,1.973,0,0,1,3.157-2.368l3.167,4.222,8.133-12.2a1.973,1.973,0,0,1,3.284,2.189l-9.68,14.52a1.974,1.974,0,0,1-1.587.878Z" transform="translate(-517.066 -297.466)"/></g></g></svg>