<svg xmlns="http://www.w3.org/2000/svg" width="190.001" height="35.567" viewBox="0 0 190.001 35.567"><defs><style>.a,.b{fill:#3075c4;}.a{font-size:24px;font-family:Poppins-Bold, Poppins;font-weight:700;letter-spacing:0.06em;}</style></defs><g transform="translate(-139.999 -61.433)"><text class="a" transform="translate(189 89)"><tspan x="0" y="0">OPTIMUSE.</tspan></text><path class="b" d="M-1243.418-8151.116h0v-13.49h5.724a16.428,16.428,0,0,0,7.777-1.675,12.417,12.417,0,0,0,2.884-2.09,18.494,18.494,0,0,1-5.069,11.629,18.5,18.5,0,0,1-11.314,5.626Zm-9.234-1.317h0a18.5,18.5,0,0,1-8.173-6.7A18.405,18.405,0,0,1-1264-8169.5a18.4,18.4,0,0,1,3.175-10.365,18.5,18.5,0,0,1,8.174-6.7v34.132Zm14.256-19.519h-5.023v-9.5h5.023a5.53,5.53,0,0,1,3.942,1.241,4.656,4.656,0,0,1,1.3,3.51,4.656,4.656,0,0,1-1.3,3.51A5.536,5.536,0,0,1-1238.4-8171.952Z" transform="translate(1404 8248)"/></g></svg>