<svg xmlns="http://www.w3.org/2000/svg" width="190" height="35.567" viewBox="0 0 190 35.567"><defs><style>.a,.b{fill:#3075c4;}.a{font-size:24px;font-family:Poppins-Bold, Poppins;font-weight:700;letter-spacing:0.06em;}</style></defs><g transform="translate(-140 -61.433)"><text class="a" transform="translate(189 89)"><tspan x="0" y="0">OPTIMUSE.</tspan></text><path class="b" d="M-1186.418-2727.116h0v-13.491h5.724a16.427,16.427,0,0,0,7.776-1.674,12.438,12.438,0,0,0,2.884-2.089,18.5,18.5,0,0,1-5.069,11.629,18.5,18.5,0,0,1-11.314,5.626Zm-9.234-1.317h0a18.5,18.5,0,0,1-8.172-6.7A18.4,18.4,0,0,1-1207-2745.5a18.4,18.4,0,0,1,3.174-10.365,18.5,18.5,0,0,1,8.174-6.7v34.132Zm14.256-19.519h-5.022v-9.5h5.022a5.533,5.533,0,0,1,3.942,1.242,4.653,4.653,0,0,1,1.3,3.51,4.652,4.652,0,0,1-1.3,3.51A5.532,5.532,0,0,1-1181.4-2747.952Z" transform="translate(1347 2824)"/></g></svg>