<svg xmlns="http://www.w3.org/2000/svg" width="59.62" height="59.62" viewBox="0 0 59.62 59.62"><defs><style>.a{fill:#f0f0f0;}.b{fill:#3075c4;}</style></defs><g transform="translate(-152.38 -1699.69)"><circle class="a" cx="29.81" cy="29.81" r="29.81" transform="translate(152.38 1699.69)"/><path class="b" d="M15.024,6.129a4.2,4.2,0,1,1,4.2,4.2A4.2,4.2,0,0,1,15.024,6.129Zm8.913,3.692a4.2,4.2,0,1,1,4.2,4.2A4.2,4.2,0,0,1,23.937,9.821Zm5.792,8.913a2.1,2.1,0,1,1,2.1,2.1A2.1,2.1,0,0,1,29.729,18.734Zm-3.692,8.913a2.1,2.1,0,1,1,2.1,2.1A2.1,2.1,0,0,1,26.037,27.647Zm-8.913,3.692a2.1,2.1,0,1,1,2.1,2.1A2.1,2.1,0,0,1,17.125,31.338ZM8.212,27.647a2.1,2.1,0,1,1,2.1,2.1A2.1,2.1,0,0,1,8.212,27.647ZM7.162,9.821a3.151,3.151,0,1,1,3.151,3.151A3.151,3.151,0,0,1,7.162,9.821Zm-2.9,8.913A2.363,2.363,0,1,1,6.621,21.1,2.363,2.363,0,0,1,4.258,18.734Z" transform="translate(163.122 1712.192)"/></g></svg>